<svg id="Phone" xmlns="http://www.w3.org/2000/svg" width="90" height="186" viewBox="0 0 90 186">
  <rect id="Rectangle_16" data-name="Rectangle 16" width="89.257" height="179.5" transform="translate(0.317 3)" fill="#fff"/>
  <g id="Phone-2" data-name="Phone">
    <path id="Icon_ionic-ios-phone-portrait" data-name="Icon ionic-ios-phone-portrait" d="M87.182,2.25H23.43A13.447,13.447,0,0,0,10.125,15.909V174.092c0,7.639,5.949,14.158,13.305,14.158H87.141c7.356,0,12.983-6.518,12.983-14.158V15.909C100.165,8.312,94.537,2.25,87.182,2.25ZM49.116,11.8H61.174a1.662,1.662,0,0,1,0,3.321H49.116a1.662,1.662,0,0,1,0-3.321Zm6.23,170.223A7.228,7.228,0,1,1,62.34,174.8,7.117,7.117,0,0,1,55.346,182.022ZM92.93,161.679H17.36a.82.82,0,0,1-.8-.83V24.254a.82.82,0,0,1,.8-.83H92.93a.82.82,0,0,1,.8.83V160.848A.82.82,0,0,1,92.93,161.679Z" transform="translate(-10.125 -2.25)" fill="#005f6b"/>
  </g>
  <g id="Layer_1" data-name="Layer 1" transform="translate(16.062 61.996)">
    <g id="Group_214" data-name="Group 214" transform="translate(0.01 0)">
      <path id="Path_38" data-name="Path 38" d="M47.378,135.87c0,.048-.012.052-.028,0Z" transform="translate(-40.09 -115.033)" fill="#e6e6e6"/>
      <g id="Group_210" data-name="Group 210" transform="translate(19.528 41.733)">
        <path id="Path_39" data-name="Path 39" d="M131.546,272.39h.432l-1.225,3.044h-.1l-.991-2.464-1,2.464h-.094l-1.222-3.044h.437l.836,2.089.84-2.089h.409l.845,2.089.827-2.089Z" transform="translate(-127.35 -272.35)" fill="#005f6b"/>
        <path id="Path_40" data-name="Path 40" d="M161.742,272.27h.305l1.359,3.049h-.445l-.4-.9h-1.293l-.379.9h-.446Zm.638,1.764-.489-1.1-.454,1.1Z" transform="translate(-155.365 -272.249)" fill="#005f6b"/>
        <path id="Path_41" data-name="Path 41" d="M187.073,273.93l-.33-.2a1.482,1.482,0,0,1-.442-.373.707.707,0,0,1-.132-.422.744.744,0,0,1,.248-.581.929.929,0,0,1,.646-.224,1.191,1.191,0,0,1,.7.213v.492a1,1,0,0,0-.705-.314.585.585,0,0,0-.35.1.3.3,0,0,0-.136.252.384.384,0,0,0,.1.255,1.266,1.266,0,0,0,.324.25l.331.2a.972.972,0,0,1,.555.844.774.774,0,0,1-.244.592.893.893,0,0,1-.635.229,1.331,1.331,0,0,1-.817-.276v-.551a1.02,1.02,0,0,0,.814.445.511.511,0,0,0,.339-.114.353.353,0,0,0,.135-.284c0-.184-.133-.359-.4-.524Z" transform="translate(-177.15 -272.13)" fill="#005f6b"/>
        <path id="Path_42" data-name="Path 42" d="M205.642,272.39h1.718v.386h-1.285v.925h1.241v.388h-1.241v.942H207.4v.386H205.64V272.39Z" transform="translate(-193.634 -272.35)" fill="#005f6b"/>
        <path id="Path_43" data-name="Path 43" d="M225.342,272.39h1.718v.386h-1.285v.925h1.241v.388h-1.241v.942H227.1v.386H225.34V272.39Z" transform="translate(-210.313 -272.35)" fill="#005f6b"/>
        <path id="Path_44" data-name="Path 44" d="M243.37,272.36H245.9v.386h-1.057v2.648h-.436v-2.648h-1.04Z" transform="translate(-225.578 -272.325)" fill="#005f6b"/>
      </g>
      <g id="Group_211" data-name="Group 211" transform="translate(21.715 35.253)">
        <path id="Path_45" data-name="Path 45" d="M165.545,230.226l.267.186a.273.273,0,0,1,.107.3,5.521,5.521,0,0,1-.589,1.35,5.585,5.585,0,0,1-.716.942.271.271,0,0,1-.383.009,4.5,4.5,0,0,1-.827-1.055,4.419,4.419,0,0,1-.477-1.254.271.271,0,0,1,.11-.279l.278-.193a1.955,1.955,0,0,1,2.228,0Z" transform="translate(-159.653 -229.878)" fill="#005f6b"/>
        <path id="Path_46" data-name="Path 46" d="M144.235,230.226l.267.186a.273.273,0,0,1,.107.3,5.523,5.523,0,0,1-.589,1.35,5.581,5.581,0,0,1-.716.942.271.271,0,0,1-.383.009,4.5,4.5,0,0,1-.827-1.055,4.417,4.417,0,0,1-.477-1.254.271.271,0,0,1,.11-.279l.278-.193a1.955,1.955,0,0,1,2.228,0Z" transform="translate(-141.611 -229.878)" fill="#005f6b"/>
      </g>
      <g id="Group_212" data-name="Group 212" transform="translate(22.684 14.356)">
        <path id="Path_47" data-name="Path 47" d="M183.9,107.956q-2.4-4.794-4.788-9.576l-5.947,2.974q1.693,3.388,3.383,6.768a3.614,3.614,0,0,1,.923-.265q-1.279-2.56-2.564-5.13a.988.988,0,0,0,.419-1.261c.859-.428,1.718-.857,2.587-1.293a1,1,0,0,0,.541.457.993.993,0,0,0,.715-.043q1.709,3.414,3.409,6.818a1.065,1.065,0,0,0-.465.564l1.788-.015Z" transform="translate(-169.299 -97.649)" fill="#21aab5"/>
        <path id="Path_48" data-name="Path 48" d="M165.351,105.885a3.357,3.357,0,0,0-.33.225l-4.591-7.044c1.88-1.2,3.743-2.389,5.617-3.587.172.267.337.521.511.794-1.609.8-3.205,1.6-4.809,2.406q1.806,3.612,3.6,7.206Z" transform="translate(-158.513 -95.193)" fill="#21aab5"/>
        <path id="Path_49" data-name="Path 49" d="M154.024,104.9c-.066.067-.129.136-.186.2q-2.951-3.71-5.909-7.433l5.3-4.056c.212.255.419.5.632.755L149.2,97.343Q151.616,101.122,154.024,104.9Z" transform="translate(-147.93 -93.61)" fill="#21aab5"/>
        <path id="Path_50" data-name="Path 50" d="M200.526,134.87a1.4,1.4,0,1,1,1.877.638A1.4,1.4,0,0,1,200.526,134.87Z" transform="translate(-192.335 -126.826)" fill="#21aab5"/>
      </g>
      <path id="Path_51" data-name="Path 51" d="M60.585,241.792l-1.923,1.952c-9.119-8.979-10.172-12.279-10.172-13.98V226.3h2.74v3.464c0,.661.675,3.48,9.353,12.028Z" transform="translate(-41.055 -191.596)" fill="#005f6b"/>
      <path id="Path_52" data-name="Path 52" d="M92.075,11.726V23.494h-2.74V13.859a48.169,48.169,0,0,1-11.37-4.711,48.194,48.194,0,0,1-7.708-5.5A54.761,54.761,0,0,1,60.4,10.137a54.9,54.9,0,0,1-9.166,3.691V18.28a3.973,3.973,0,0,0-2.742-1.371v-5.15l1-.281A51.905,51.905,0,0,0,59.145,7.7,51.926,51.926,0,0,0,69.386.8L70.31,0l.9.825a45.66,45.66,0,0,0,8.119,5.946,45.6,45.6,0,0,0,11.707,4.7l1.04.258Z" transform="translate(-41.055 0)" fill="#005f6b"/>
      <path id="Path_53" data-name="Path 53" d="M282.915,258.33h2.978c-.462,1.44-1.9,3.828-6.062,8.369l-2.021-1.851a36.1,36.1,0,0,0,5.105-6.516Z" transform="translate(-235.208 -218.713)" fill="#005f6b"/>
      <path id="Path_54" data-name="Path 54" d="M139.878,327.131l-.891-.75c-.038-.032-3.955-3.331-8.307-7.447l1.883-1.992c3.066,2.9,5.91,5.384,7.3,6.581,2.15-1.877,7.778-6.854,12.035-11.183l1.954,1.922c-5.424,5.516-13.014,12.045-13.091,12.109l-.883.759Z" transform="translate(-110.641 -264.441)" fill="#21aab5"/>
      <g id="Group_213" data-name="Group 213" transform="translate(0 18.584)">
        <path id="Path_55" data-name="Path 55" d="M212.989,171.572a2.712,2.712,0,0,0-1.923-.8h-4.745v-4.547a.719.719,0,0,0-.719-.719h-4.277a2.989,2.989,0,0,0-2.989,2.989v5H203.6v2.547H186.159a2.719,2.719,0,0,0-2.719,2.719h22.881v-5.268h7.465a2.712,2.712,0,0,0-.8-1.923Zm-9.388-.8h-2.546v-2.546H203.6Z" transform="translate(-155.31 -158.712)" fill="#005f6b"/>
        <path id="Path_56" data-name="Path 56" d="M39.861,128.776a2.709,2.709,0,0,0-.8,1.923v2.546H36.521v-5.266A2.717,2.717,0,0,0,33.8,130.7v2.546H31.255v-5.266a2.717,2.717,0,0,0-2.717,2.719v2.547H25.99v-3.906a1.36,1.36,0,0,0-2.721,0v3.906H20.724v-2.882a2.385,2.385,0,0,0-2.385-2.385H10.191V123.9a2.687,2.687,0,0,0-.058-.56,2.715,2.715,0,0,0-2.659-2.156v12.066H2.729A2.718,2.718,0,0,0,.01,135.965H41.787v-7.984a2.71,2.71,0,0,0-1.923.8ZM18,133.246H10.19V130.7H18Z" transform="translate(-0.01 -121.18)" fill="#005f6b"/>
      </g>
      <path id="Path_57" data-name="Path 57" d="M314.848,165.58q0,.023-.028,0Z" transform="translate(-266.542 -140.187)" fill="#e6e6e6"/>
      <path id="Path_58" data-name="Path 58" d="M72.293,52.526c-.158-2.383-.256-4.863-.353-7.254a40.3,40.3,0,0,0,9.592-3.46,53.018,53.018,0,0,0,8.658-5.843,67.417,67.417,0,0,0,6.662,4.615,47.091,47.091,0,0,0,8.97,4.389,19.293,19.293,0,0,0,2.711.673c0,.164-.083,1.725-.083,1.932-.072,1.65-.161,4.542-.271,6.191-.112-1.649-.2-4.541-.271-6.191l-.072-1.65.3.34a20.35,20.35,0,0,1-5.032-1.19,51.732,51.732,0,0,1-13.368-7.554l.931-.008a55.248,55.248,0,0,1-6.289,4.322,37.207,37.207,0,0,1-7.051,2.967,25.435,25.435,0,0,1-4.984,1.08l.291-.337c-.084,2.3-.2,4.688-.342,6.978Z" transform="translate(-60.909 -30.454)" fill="#21aab5"/>
      <path id="Path_59" data-name="Path 59" d="M150.342,310.84a54.388,54.388,0,0,1,6.584,4.51l-1.5.044c.423-.426.862-.834,1.3-1.248,1.316-1.221,2.685-2.4,4.1-3.512a39.078,39.078,0,0,1,6.059-4.015l.092.1c-.886.808-1.765,1.624-2.656,2.425-2.412,2.175-5.676,5.128-8.111,7.275-2.116-1.688-3.963-3.664-5.958-5.481l.092-.1h0Z" transform="translate(-127.21 -259.598)" fill="#005f6b"/>
      <path id="Path_60" data-name="Path 60" d="M74.727,226.732a10.559,10.559,0,0,0,.652,3.742,12.168,12.168,0,0,0,1.374,2.032c2.029,2.586,4.631,5.685,6.7,8.272a48.329,48.329,0,0,1-4.483-4.588c-.934-1.081-1.842-2.182-2.687-3.337A11.576,11.576,0,0,1,75,230.757a8.231,8.231,0,0,1-.278-4.027h0Z" transform="translate(-63.157 -191.96)" fill="#21aab5"/>
      <path id="Path_61" data-name="Path 61" d="M271.88,263.069c.675-.871,1.727-2.006,2.461-2.837.753-.82,1.765-1.978,2.567-2.742a13.273,13.273,0,0,1-5.029,5.579Z" transform="translate(-230.187 -218.002)" fill="#21aab5"/>
    </g>
  </g>
</svg>
